<svg width="1251" height="675" viewBox="0 0 1251 675" xmlns="http://www.w3.org/2000/svg" xmlns:xlink="http://www.w3.org/1999/xlink">
    <g id="g3">
        <path id="path5" fill="#f89939" stroke="none" d="M 959.940063 573.065979 C 1112.350464 420.664429 1137.68103 198.908966 1016.513977 77.750916 C 895.36499 -43.393555 673.618591 -18.067566 521.217041 134.32489 C 368.815491 286.722015 412.902069 577.880981 464.652069 629.639893 C 506.470551 671.458435 807.547607 725.458435 959.940063 573.065979 Z"/>
        <path id="path7" fill="#3499cd" stroke="none" d="M 334.575043 352.849548 C 246.159058 264.433502 117.486008 249.71402 47.173508 320.021973 C -23.120968 390.321014 -8.423973 519.011963 80.009995 607.414551 C 168.444031 695.857544 337.387543 670.275024 367.393524 640.242004 C 391.675507 616.000549 423.018005 441.274536 334.575043 352.849548 Z"/>
    </g>
    <g id="g9">
        <g id="g11">
            <path id="path13" fill="#010101" stroke="none" d="M 639.643494 535.711487 C 624.023987 550.088989 610.321472 560.700012 598.545044 567.517456 C 586.768494 574.357544 575.536499 577.772949 564.848999 577.772949 C 552.555054 577.772949 542.636963 573.007446 535.117554 563.472046 C 527.584534 553.92749 523.831543 541.129517 523.831543 525.028503 C 523.831543 500.904053 529.060486 471.942017 539.518494 438.174042 C 549.958557 404.378998 562.671021 373.238953 577.60199 344.749481 L 621.382446 328.540527 C 622.755066 328.081421 623.799011 327.847565 624.492004 327.847565 C 627.813049 327.847565 630.557983 330.295441 632.664063 335.168976 C 634.79248 340.065033 635.863525 346.643921 635.863525 354.914978 C 635.863525 378.35556 630.468018 401.049042 619.654602 422.995483 C 608.84552 444.950958 591.961548 468.382446 568.984558 493.317017 C 568.062012 505.268921 567.603027 513.476929 567.603027 517.963501 C 567.603027 527.966919 569.439026 535.882446 573.11554 541.745972 C 576.796509 547.618469 581.6745 550.534546 587.767517 550.534546 C 593.981995 550.534546 600.583557 548.311401 607.594543 543.829407 C 614.592102 539.338501 625.279602 530.041443 639.638977 515.897949 L 639.638977 535.711487 Z M 573.637512 468.333008 C 588.226563 452.110474 600.075012 433.916992 609.146973 413.788513 C 618.219055 393.651001 622.750549 376.330505 622.750549 361.817963 C 622.750549 357.587952 622.125 354.150055 620.869507 351.567047 C 619.60498 348.979492 617.985046 347.678986 616.036499 347.678986 C 611.802063 347.678986 605.614563 358.262939 597.51001 379.435516 C 589.405518 400.603546 581.449463 430.24054 573.637512 468.333008 Z"/>
            <path id="path15" fill="#010101" stroke="none" d="M 768.577576 535.711487 C 753.988525 550.088989 740.893555 560.700012 729.283569 567.517456 C 717.673523 574.357544 704.875549 577.772949 690.848999 577.772949 C 675.220581 577.772949 662.611572 572.773438 653.004028 562.787964 C 643.414612 552.775452 638.626587 539.630981 638.626587 523.309448 C 638.626587 498.955505 647.064087 476.918976 663.975098 457.213501 C 680.850098 437.498932 699.588074 427.648438 720.153137 427.648438 C 730.840637 427.648438 739.390625 430.416046 745.834656 435.928436 C 752.269592 441.450012 755.487061 448.681519 755.487061 457.645508 C 755.487061 481.436951 730.210571 500.728546 679.653137 515.555969 C 684.243103 537.952576 696.249084 549.166443 715.671143 549.166443 C 723.257996 549.166443 730.489624 547.12793 737.379028 543.059937 C 744.286499 538.973999 754.677124 529.911011 768.582092 515.902466 L 768.582092 535.711487 Z M 678.262512 503.833435 C 707.670044 495.553436 722.385132 480.280518 722.385132 457.987488 C 722.385132 446.958008 718.357544 441.445496 710.325012 441.445496 C 702.738037 441.445496 695.506531 447.210022 688.617004 458.770508 C 681.705078 470.313049 678.262512 485.325012 678.262512 503.833435 Z"/>
            <path id="path17" fill="#010101" stroke="none" d="M 952.654419 535.711487 C 934.267456 553.176025 921.109375 564.56543 913.189514 569.857544 C 905.260376 575.140442 897.677917 577.777466 890.432983 577.777466 C 872.275452 577.777466 863.720947 561.75293 864.751465 529.69043 C 853.262939 546.11554 842.656433 558.238525 832.945496 566.068481 C 823.243469 573.880493 813.221985 577.777466 802.867371 577.777466 C 792.76947 577.777466 784.183472 573.047974 777.10498 563.566528 C 770.026367 554.085022 766.511963 542.45697 766.511963 528.655518 C 766.511963 511.429504 771.241455 494.995483 780.713867 479.357941 C 790.204407 463.729492 802.354492 451.102478 817.172974 441.450012 C 831.991455 431.797424 845.104492 426.964539 856.466919 426.964539 C 870.835388 426.964539 880.893005 433.575012 886.639404 446.782532 L 921.865417 427.31543 L 931.531433 427.31543 L 916.316895 477.809967 C 908.504944 503.212402 904.585388 520.622986 904.585388 530.041443 C 904.585388 539.918945 908.08197 544.859924 915.097412 544.859924 C 919.561401 544.859924 924.50238 542.479492 929.906982 537.704956 C 935.311401 532.93042 942.880432 525.662964 952.645386 515.897949 L 952.645386 535.711487 Z M 826.487976 545.202026 C 837.976379 545.202026 848.803406 535.410034 858.991455 515.821411 C 869.161499 496.223999 874.242004 478.143005 874.242004 461.601013 C 874.242004 455.174988 872.792908 450.139526 869.935486 446.526001 C 867.050903 442.89447 863.203491 441.094482 858.388428 441.094482 C 846.890991 441.094482 835.992004 450.859558 825.727478 470.398438 C 815.444946 489.9375 810.29248 507.919495 810.29248 524.335571 C 810.29248 530.549988 811.82251 535.576477 814.864441 539.428467 C 817.906433 543.280518 821.767456 545.202026 826.487976 545.202026 Z"/>
            <path id="path19" fill="#010101" stroke="none" d="M 1081.412964 535.711487 C 1052.567993 563.976013 1030.328979 578.119507 1014.704956 578.119507 C 1007.689514 578.119507 1001.767456 575.158447 996.952393 569.258911 C 992.137512 563.337036 989.712036 556.006531 989.712036 547.267456 C 989.712036 531.067444 998.396973 509.359558 1015.744507 482.121002 C 1007.234924 486.49054 997.938049 489.523438 987.82196 491.251465 C 980.351929 505.039429 968.625 519.867004 952.658997 535.70697 L 948.703491 535.70697 L 948.703491 520.213501 C 957.658447 510.907532 965.762939 500.903931 973.003479 490.216431 C 963.10791 485.847015 958.176025 479.353546 958.176025 470.749451 C 958.176025 461.888977 961.182007 452.443481 967.22998 442.377014 C 973.26001 432.333008 981.557983 427.311035 992.137512 427.311035 C 1001.10144 427.311035 1005.574463 431.891907 1005.574463 441.089966 C 1005.574463 448.330505 1002.991455 458.666992 997.811951 472.117554 C 1016.882996 470.04303 1033.546509 455.462952 1047.80249 428.337036 L 1063.480591 427.643921 L 1047.451538 471.766541 C 1040.791504 490.382996 1036.480591 503.063965 1034.531982 509.777985 C 1032.583374 516.492004 1031.5979 522.450012 1031.5979 527.611572 C 1031.5979 532.444458 1032.7229 536.30542 1034.954956 539.158447 C 1037.196045 542.052002 1040.219971 543.473999 1044.008911 543.473999 C 1048.139893 543.473999 1052.113525 542.061035 1055.902466 539.261963 C 1059.691528 536.422424 1068.196411 528.646484 1081.41748 515.893555 L 1081.41748 535.711487 Z"/>
            <path id="path21" fill="#010101" stroke="none" d="M 1250.676025 535.711487 C 1224.13501 563.764526 1201.369507 577.777466 1182.420044 577.777466 C 1174.720581 577.777466 1168.515015 575.077393 1163.803589 569.672974 C 1159.083008 564.277466 1156.729492 557.041443 1156.729492 547.964966 C 1156.729492 535.670959 1161.791992 516.879028 1171.908081 491.611542 C 1177.303589 478.048523 1180.012573 469.417511 1180.012573 465.754517 C 1180.012573 462.073425 1178.563599 460.232941 1175.706055 460.232941 C 1174.099487 460.232941 1171.962036 461.04303 1169.325073 462.640442 C 1166.899536 464.246948 1164.087036 466.505981 1160.869507 469.372467 C 1158.003052 472.00946 1154.776489 475.226929 1151.217041 479.006927 C 1148.107544 482.251465 1144.773071 485.923523 1141.231445 490.045441 L 1131.565552 501.25946 C 1127.322144 506.425507 1124.676025 511.875 1123.645508 517.625916 C 1121.912964 527.390991 1120.77002 536.363953 1120.189453 544.531433 C 1119.838501 550.606445 1119.671997 558.814514 1119.671997 569.17804 L 1081.57959 578.123901 C 1080.324097 562.612488 1079.680542 551.061035 1079.680542 543.487488 C 1079.680542 524.988037 1081.83606 507.460571 1086.151489 490.918457 C 1090.458008 474.358459 1097.374634 455.755463 1106.918945 435.064514 L 1148.967041 426.968933 C 1140.124634 450.760529 1134.324097 469.48053 1131.565552 483.146973 C 1150.411499 462.122986 1165.351563 447.569946 1176.426025 439.456543 C 1187.482544 431.351929 1197.328491 427.319946 1205.932617 427.319946 C 1211.777954 427.319946 1216.664917 429.525055 1220.557617 433.939514 C 1224.468018 438.358459 1226.411987 443.906982 1226.411987 450.539978 C 1226.411987 461.560486 1221.471069 479.718018 1211.602417 505.007996 C 1204.816528 522.351013 1201.423462 533.60553 1201.423462 538.80304 C 1201.423462 545.719482 1204.245117 549.175537 1209.888062 549.175537 C 1218.289551 549.175537 1231.897461 538.083008 1250.676025 515.906982 Z"/>
        </g>
    </g>
    <path id="rect23" fill="none" stroke="none" d="M 692.743469 295.258514 L 1706.33252 295.258514 L 1706.33252 673.024536 L 692.743469 673.024536 Z"/>
    <text id="scikit" xml:space="preserve" x="688" y="370" font-family="Helvetica" font-size="103.85775" fill="#ffffff">scikit</text>
    <path id="rect27" fill="none" stroke="none" d="M 1015.055969 620.905518 L 2479.5 620.905518 L 2479.5 814.239075 L 1015.055969 814.239075 Z"/>
</svg>
